<?xml version="1.0" encoding="utf-8"?>
<svg version="1.1" xmlns="http://www.w3.org/2000/svg" xmlns:xlink="http://www.w3.org/1999/xlink" x="0px" y="0px"
	 viewBox="0 0 32 32" enable-background="new 0 0 32 32" xml:space="preserve">
<path fill="#FFFFFF" d="M27,0c1.9,0,3.4,1.5,3.5,3.3V32l-3.6-3l-2-1.8l-2.1-1.9l0.9,2.9H4.9c-1.9,0-3.4-1.4-3.4-3.3V3.3
	C1.6,1.5,3.1,0,5,0L27,0L27,0z M18.8,7.6L18.8,7.6l-0.3,0.3c2.8,0.8,4.1,2,4.1,2c-1.8-0.9-3.4-1.3-5-1.5c-1.2-0.2-2.3-0.1-3.3,0H14
	c-0.6,0-2,0.3-3.7,1c-0.6,0.3-1,0.4-1,0.4s1.3-1.3,4.3-2l-0.2-0.2c0,0-2.2-0.1-4.6,1.7c0,0-2.4,4.2-2.4,9.4c0,0,1.3,2.3,5,2.4
	c0,0,0.5-0.7,1.1-1.3c-2.1-0.6-2.9-1.9-2.9-1.9s0.2,0.1,0.4,0.3h0.1c0,0,0.1,0,0.1,0v0c0,0,0,0,0.1,0c0.4,0.2,0.9,0.4,1.2,0.5
	c0.6,0.3,1.4,0.5,2.4,0.7c1.2,0.2,2.7,0.3,4.3,0c0.8-0.2,1.6-0.4,2.4-0.7c0.5-0.3,1.2-0.5,1.9-1c0,0-0.8,1.2-2.9,1.9
	c0.4,0.6,1.1,1.3,1.1,1.3c3.7-0.1,5.1-2.4,5.2-2.3c0-5.2-2.4-9.4-2.4-9.4C21.1,7.7,19.1,7.6,18.8,7.6L18.8,7.6z M19,13.5
	c0.9,0,1.7,0.8,1.7,1.8c0,1-0.8,1.8-1.7,1.8s-1.7-0.8-1.7-1.8C17.3,14.3,18.1,13.5,19,13.5z M13,13.5c0.9,0,1.7,0.8,1.7,1.8
	c0,1-0.8,1.8-1.7,1.8s-1.7-0.8-1.7-1.8C11.3,14.3,12,13.5,13,13.5L13,13.5z"/>
</svg>
