<?xml version="1.0" encoding="utf-8"?>
<svg version="1.1" xmlns="http://www.w3.org/2000/svg" xmlns:xlink="http://www.w3.org/1999/xlink" x="0px" y="0px"
	 viewBox="0 0 512 512" enable-background="new 0 0 512 512" xml:space="preserve">
<g>
	<path fill="#75DAFF" d="M480.2,172c0-21.1-8.2-41.1-22.8-56.1c5.5-5.7,8.8-13.5,8.8-22c0-17.6-14.3-32-32-32h-7.4v-7.4
		c0-17.6-14.3-32-32-32c-11.3,0-21.2,5.9-26.9,14.8c-4.4-4.7-9.1-9.1-14.2-13c-3.3-2.5-8-1.9-10.5,1.3s-1.9,8,1.3,10.5
		c6.9,5.3,13,11.5,18.3,18.4v7.4h-7.4c-17.6,0-32,14.3-32,32s14.3,32,32,32h7.4v7.4c0,10.2,4.8,19.2,12.2,25.1
		c-4.9,10.9-11.9,21-20.3,29.5h-54c3.1-10.6,4.7-21.7,4.7-32.9c0-21.1-5.7-41.7-16.4-59.7c-16.5-27.6-43.7-47.1-74.7-54.1
		C233,24.4,257.1,15,282.5,15c13.1,0,25.8,2.5,37.9,7.3c3.8,1.5,8.2-0.3,9.8-4.2c1.5-3.8-0.3-8.2-4.2-9.8C312.1,2.8,297.5,0,282.5,0
		c-33.2,0-64.5,14-86.6,38.6c-2.3-0.1-4.6-0.2-6.9-0.2c-20.5,0-40.8,5.4-58.4,15.7c-15.9,9.2-29.5,22.2-39.4,37.6h-3.7
		c-30.7,0-55.6,25-55.6,55.6h0l0,309.1c0,30.7,25,55.6,55.6,55.6h312.5c44.3,0,80.3-36,80.3-80.3l0-163.4h0L480.2,172z M370.4,110.9
		h-14.9c-9.4,0-17-7.6-17-17s7.6-17,17-17h14.9c4.1,0,7.5-3.4,7.5-7.5V54.5c0-9.4,7.6-17,17-17s17,7.6,17,17v14.9
		c0,4.1,3.4,7.5,7.5,7.5h14.9c9.4,0,17,7.6,17,17s-7.6,17-17,17h-14.9c-4.1,0-7.5,3.4-7.5,7.5v14.9c0,9.4-7.6,17-17,17
		s-17-7.6-17-17v-14.9C377.9,114.2,374.5,110.9,370.4,110.9L370.4,110.9z M388.7,164.7c2,0.4,4.1,0.6,6.2,0.6c17.6,0,32-14.3,32-32
		v-7.4h7.4c3.6,0,7-0.6,10.2-1.7c13.2,12.4,20.8,29.5,20.8,47.8v49.6c-14.6-20.4-38.4-33.7-65.4-33.7h-25.2
		C380.2,180.7,384.9,172.9,388.7,164.7L388.7,164.7z M188.9,53.4c3.1,0,6.3,0.1,9.4,0.4c32.2,2.9,61.3,21.3,77.9,49.2
		c9.4,15.7,14.3,33.6,14.3,52c0,11.3-1.8,22.4-5.5,32.9h-52.9l5.7-8.2c4.7-6.8,5.3-15.6,1.4-23c-3.9-7.4-11.4-11.9-19.7-11.9h-5.1
		V93.7c0-7.9-4.8-14.6-12.2-17.1s-15.3-0.1-20.1,6.2l-41.5,54.5c-5.2,6.8-6,15.7-2.2,23.4c3.8,7.6,11.4,12.4,19.9,12.4h14.2v14.9
		H92.8c-3.6-10.6-5.5-21.6-5.5-32.9c0-18.4,4.9-36.3,14.3-52C119.9,72.4,153.4,53.4,188.9,53.4z M187.6,187.9v-22.4
		c0-4.1-3.4-7.5-7.5-7.5h-21.7c-2.8,0-5.2-1.5-6.5-4c-1.2-2.5-1-5.4,0.7-7.6l41.5-54.5c1.1-1.5,2.6-1.3,3.4-1s2,1,2,2.9v58.6
		c0,4.1,3.4,7.5,7.5,7.5h12.6c4,0,5.8,2.7,6.4,3.9c0.6,1.2,1.8,4.2-0.5,7.5l-11.6,16.8L187.6,187.9z M82.7,106.9
		c-6.8,15-10.4,31.4-10.4,48.1c0,10.8,1.5,21.3,4.3,31.5c-17.2-4.7-29.9-20.5-29.9-39.2c0,0,0,0,0-0.1
		C46.8,126.4,62.5,109.2,82.7,106.9z M187.7,443.9l-30.3-30.3c3.6-2.5,6.7-5.6,9.2-9.2l34.4,34.4c1.2,1.2,1.9,2.9,1.9,4.6V497h-13
		v-47.8C189.9,447.3,189.1,445.3,187.7,443.9L187.7,443.9z M137.2,404.9c-11.4,0-20.6-9.3-20.6-20.6s9.3-20.6,20.6-20.6
		s20.6,9.3,20.6,20.6S148.6,404.9,137.2,404.9z M341.1,377.3l-30.3,30.3c-1.4,1.4-2.2,3.3-2.2,5.3V497h-13v-89.9
		c0-1.7,0.7-3.4,1.9-4.6l34.4-34.4C334.4,371.7,337.5,374.8,341.1,377.3L341.1,377.3z M340.6,347.9c0-11.4,9.3-20.6,20.6-20.6
		s20.6,9.3,20.6,20.6s-9.3,20.6-20.6,20.6S340.6,359.3,340.6,347.9z M465.2,431.7c0,36-29.3,65.3-65.3,65.3h-76.3v-81l32.8-32.8
		c1.6,0.2,3.2,0.3,4.9,0.3c19.6,0,35.6-16,35.6-35.6s-16-35.6-35.6-35.6s-35.6,16-35.6,35.6c0,1.7,0.1,3.3,0.3,4.9l-39.1,39.1
		c-4.1,4.1-6.3,9.5-6.3,15.2V497h-9.8V363.9c0-5.7-2.2-11.1-6.3-15.2l-21.5-21.5c0.2-1.6,0.3-3.2,0.3-4.9c0-19.6-16-35.6-35.6-35.6
		s-35.6,16-35.6,35.6s16,35.6,35.6,35.6c1.7,0,3.3-0.1,4.9-0.3l15.2,15.2v13.3c0,4.1,3.4,7.5,7.5,7.5s7.5-3.4,7.5-7.5v-16.4
		c0-2-0.8-3.9-2.2-5.3l-12.7-12.7c3.6-2.5,6.7-5.6,9.2-9.2l16.8,16.8c1.2,1.2,1.9,2.9,1.9,4.6V497h-13v-80.9c0-4.1-3.4-7.5-7.5-7.5
		s-7.5,3.4-7.5,7.5V497h-9.8v-53.6c0-5.7-2.2-11.1-6.3-15.2l-39.1-39.1c0.2-1.6,0.3-3.2,0.3-4.9c0-19.6-16-35.6-35.6-35.6
		s-35.6,16-35.6,35.6s16,35.6,35.6,35.6c1.7,0,3.3-0.1,4.9-0.3l32.8,32.8V497H87.4c-22.4,0-40.6-18.2-40.6-40.6l0-271.1
		c10.2,10.9,24.6,17.7,40.6,17.7h312.5c36,0,65.3,29.3,65.3,65.3L465.2,431.7z M207.6,343c-11.4,0-20.6-9.3-20.6-20.6
		s9.3-20.6,20.6-20.6c11.4,0,20.6,9.3,20.6,20.6S219,343,207.6,343z"/>
</g>
</svg>
