<?xml version="1.0" encoding="utf-8"?>
<svg version="1.1" xmlns="http://www.w3.org/2000/svg" xmlns:xlink="http://www.w3.org/1999/xlink" x="0px" y="0px"
	 viewBox="0 0 512 512" enable-background="new 0 0 512 512" xml:space="preserve">
<g>
	<path fill="#75DAFF" d="M96.1,232.8l3.7,10.8c1.3,3.9-0.6,8.2-4.3,9.9L57.9,272c-3.9,1.9-8.5,0.4-10.6-3.4L18.4,215
		c-1.8-3.3-1-7.4,1.7-9.8l99.7-94.5L99.3,85.1c-2.8-3.4-2.2-8.5,1.2-11.2c0.4-0.4,0.9-0.6,1.3-0.9v0c12.6-6.5,25-6.3,36.9-2.1
		c10,3.5,19.5,9.6,28.2,16.6c14.7-0.7,28.3,1.1,40.9,5.1c36.1,11.4,63.4,40.2,82.2,75c18.5,34.1,28.8,74.2,31.5,109.1
		c1.7,23.3,0,44.5-4.9,60.3c-1.1,3.4-4.1,5.5-7.5,5.6c-7,0.6-14.1,3.9-19.7,8.9c-4.7,4.2-8.4,9.4-10.3,15.3
		c-1.8,5.6-2,11.8,0.3,17.9c2.6,6.9,8.1,14,17.7,20.7c3.6,2.5,4.5,7.5,2,11.1c-1.6,2.2-4,3.4-6.6,3.4H91.1c-3.8,0-6.9-2.6-7.8-6.1
		c-1.8-6.2-18.4-67.9,35.1-121.4c39.3-39.3,42.9-50.4,36.6-65.3c-11.1,10.4-26.8,8.2-41.2,6.2C106.5,232.3,99.7,231.4,96.1,232.8
		L96.1,232.8z M82.4,242.1l-3-8.8c-0.7-2-0.6-4.3,0.6-6.4c7.3-13.4,21-11.5,36-9.3c12.8,1.8,27.2,3.9,32.7-9.2v0
		c0.7-1.7,2-3.1,3.7-4c3.9-2,8.7-0.5,10.8,3.4l1.3,2.6c0.1,0.1,0.1,0.3,0.2,0.4c15.1,28.6,20,38.1-34.9,93
		C89.6,343.9,94.1,388.5,97.3,404H272c-3.6-4.5-6.1-9.1-7.8-13.8c-3.6-9.8-3.4-19.6-0.5-28.4c2.8-8.6,8.2-16.3,14.9-22.2
		c6.9-6.1,15.2-10.4,23.9-12.2c3.4-13.4,4.3-30.6,2.9-49.5c-2.5-32.9-12.2-70.7-29.6-102.7c-17-31.4-41.3-57.3-73-67.3
		c-11.6-3.7-24.3-5.3-38.1-4.2v0c-2,0.1-4-0.4-5.7-1.8c-8.2-6.7-16.9-12.8-25.7-15.9c-4.8-1.6-9.6-2.4-14.5-1.8l17.9,22.3l0,0
		c2.6,3.2,2.3,7.9-0.7,10.8L35.4,212.8l22.4,41.5L82.4,242.1z"/>
	<path fill="#75DAFF" d="M64,404h252.3c4.5,0,8.6,1.8,11.6,4.8c3,3,4.8,7.1,4.8,11.6v27.3c0,4.5-1.8,8.6-4.8,11.6
		c-3,3-7.1,4.8-11.6,4.8H64c-4.5,0-8.6-1.8-11.6-4.8c-3-3-4.8-7.1-4.8-11.6v-27.3c0-4.5,1.8-8.6,4.8-11.6h0
		C55.4,405.8,59.5,404,64,404z M316.3,420H64c-0.1,0-0.2,0.1-0.3,0.1l0,0c-0.1,0.1-0.1,0.2-0.1,0.3v27.3c0,0.1,0.1,0.2,0.1,0.3
		c0.1,0.1,0.2,0.1,0.3,0.1h252.3c0.1,0,0.2,0,0.3-0.1c0.1,0,0.1-0.1,0.1-0.3v-27.3c0-0.1,0-0.2-0.1-0.3
		C316.5,420,316.4,420,316.3,420L316.3,420z"/>
	<path fill="#75DAFF" d="M20.1,496.1h340.1c1,0,1.9-0.4,2.6-1.1v0c0.7-0.7,1.1-1.6,1.1-2.6v-24.6c0-1-0.4-2-1.1-2.6l0,0
		c-0.7-0.7-1.6-1.1-2.6-1.1H20.1c-1,0-1.9,0.4-2.6,1.1l0,0c-0.7,0.7-1.1,1.6-1.1,2.6v24.6c0,1,0.4,1.9,1.1,2.6v0
		C18.2,495.7,19.1,496.1,20.1,496.1L20.1,496.1z M360.2,512.1H20.1c-5.4,0-10.3-2.2-13.9-5.8l0,0c-3.6-3.6-5.8-8.5-5.8-13.9v-24.6
		c0-5.4,2.2-10.3,5.8-13.9h0v0c3.6-3.6,8.5-5.8,13.9-5.8h340.1c5.4,0,10.3,2.2,13.9,5.8l0,0c3.6,3.6,5.8,8.5,5.8,13.9v24.6
		c0,5.4-2.2,10.4-5.8,13.9v0C370.6,509.9,365.6,512.1,360.2,512.1z"/>
	<path fill="#75DAFF" d="M368.3,105.7c0-4.4,3.6-8,8-8c4.4,0,8,3.6,8,8v108.2h71.8c4.4,0,8,3.6,8,8v96.4c0,4.4-3.6,8-8,8
		c-4.4,0-8-3.6-8-8v-88.4h-71.8c-4.4,0-8-3.6-8-8V105.7z"/>
	<path fill="#75DAFF" d="M351.6,145.5c-2.8,3.4-7.8,4-11.2,1.2c-3.4-2.8-4-7.8-1.2-11.2l30.9-38.2
		c2.8-3.4,7.8-4,11.2-1.2c0.5,0.4,0.9,0.8,1.2,1.2v0l30.9,38.2c2.8,3.4,2.3,8.5-1.2,11.3c-3.4,2.8-8.5,2.2-11.3-1.2L376.3,115
		L351.6,145.5z"/>
	<path fill="#75DAFF" d="M376.3,0.1c8.5,0,16.3,3.5,21.9,9.1c5.6,5.6,9,13.3,9,21.9c0,8.5-3.5,16.3-9,21.9
		c-5.6,5.6-13.3,9-21.9,9c-8.5,0-16.3-3.5-21.9-9c-5.6-5.6-9.1-13.3-9.1-21.9c0-8.5,3.5-16.3,9.1-21.9
		C360.1,3.6,367.8,0.1,376.3,0.1z M386.9,20.5c-2.7-2.7-6.4-4.4-10.5-4.4c-4.1,0-7.9,1.7-10.6,4.4s-4.4,6.4-4.4,10.6
		s1.7,7.9,4.4,10.6c2.7,2.7,6.4,4.4,10.6,4.4c4.1,0,7.8-1.7,10.5-4.4c2.7-2.7,4.4-6.4,4.4-10.6C391.3,26.9,389.6,23.2,386.9,20.5z"
		/>
	<path fill="#75DAFF" d="M456.1,358.2c8.5,0,16.3,3.5,21.9,9c5.6,5.6,9,13.3,9,21.9c0,8.6-3.5,16.3-9,21.9
		c-5.6,5.6-13.3,9.1-21.9,9.1c-8.6,0-16.3-3.5-21.9-9.1c-5.6-5.6-9.1-13.3-9.1-21.9c0-8.5,3.5-16.3,9.1-21.9
		C439.8,361.6,447.6,358.2,456.1,358.2L456.1,358.2z M466.6,378.5c-2.7-2.7-6.4-4.4-10.5-4.4c-4.1,0-7.9,1.7-10.6,4.4
		c-2.7,2.7-4.4,6.4-4.4,10.5c0,4.1,1.7,7.9,4.4,10.6c2.7,2.7,6.4,4.4,10.6,4.4c4.1,0,7.9-1.7,10.5-4.4c2.7-2.7,4.4-6.4,4.4-10.6
		C471,384.9,469.3,381.2,466.6,378.5z"/>
	<path fill="#75DAFF" d="M498.8,101.6c3.1-3.1,8.2-3.1,11.3,0c3.1,3.1,3.1,8.2,0,11.3l-41.7,41.7
		c-3.1,3.1-8.2,3.1-11.3,0c-3.1-3.1-3.1-8.2,0-11.3L498.8,101.6z"/>
	<path fill="#75DAFF" d="M510.1,143.3c3.1,3.1,3.1,8.2,0,11.3c-3.1,3.1-8.2,3.1-11.3,0L457.1,113
		c-3.1-3.1-3.1-8.2,0-11.3c3.1-3.1,8.2-3.1,11.3,0L510.1,143.3z"/>
	<path fill="#75DAFF" d="M278.4,28.6c3.1-3.1,8.2-3.1,11.3,0c3.1,3.1,3.1,8.2,0,11.3L248,81.6c-3.1,3.1-8.2,3.1-11.3,0
		c-3.1-3.1-3.1-8.2,0-11.3L278.4,28.6z"/>
	<path fill="#75DAFF" d="M289.7,70.3c3.1,3.1,3.1,8.2,0,11.3s-8.2,3.1-11.3,0L236.7,40c-3.1-3.1-3.1-8.2,0-11.3
		c3.1-3.1,8.2-3.1,11.3,0L289.7,70.3z"/>
	<path fill="#75DAFF" d="M188.5,135.4c-4-1.8-5.9-6.5-4.1-10.5c1.8-4,6.5-5.9,10.5-4.1c23.3,10.1,48.4,33,66,68.6
		c13.9,28.3,23.1,64.6,22.7,109.1c0,4.4-3.6,8-8,7.9c-4.4,0-8-3.6-7.9-8c0.4-41.7-8.2-75.6-21.1-101.9
		C230.8,164.6,208.8,144.2,188.5,135.4L188.5,135.4z"/>
</g>
</svg>
