<?xml version="1.0" encoding="utf-8"?>
<svg version="1.1" xmlns="http://www.w3.org/2000/svg" xmlns:xlink="http://www.w3.org/1999/xlink" x="0px" y="0px"
	 viewBox="0 0 512 512" enable-background="new 0 0 512 512" xml:space="preserve">
<g>
	<g>
		<path fill="#75DAFF" d="M381.3,144.3c4.1,0,7.5-3.4,7.5-7.5v-23.2c0-3.6-2.5-6.7-6.1-7.4L257.4,81.8c-0.9-0.2-1.9-0.2-2.9,0
			l-125.3,24.4c-3.5,0.7-6.1,3.8-6.1,7.4v87.8c0,45.4,12,90.2,34.6,129.5c22.6,39.4,55.2,72.2,94.4,95c1.2,0.7,2.5,1,3.8,1
			s2.6-0.3,3.8-1c39.1-22.8,71.8-55.7,94.4-95c22.6-39.4,34.6-84.2,34.6-129.6v-29.6c0-4.1-3.4-7.5-7.5-7.5s-7.5,3.4-7.5,7.5v29.6
			c0,85.3-45,165.2-117.8,209.4c-72.8-44.2-117.8-124.1-117.8-209.4v-81.6L256,96.8l117.8,22.9v17
			C373.8,140.9,377.1,144.3,381.3,144.3z"/>
		<path fill="#75DAFF" d="M485.3,245.7c-12.1,0-22.4,8.1-25.6,19.2H412c4.7-20.7,7.1-42.1,7.1-63.8V192h16.4
			c3.2,11.1,13.5,19.2,25.6,19.2c14.7,0,26.7-12,26.7-26.7s-12-26.7-26.7-26.7c-12.1,0-22.4,8.1-25.6,19.2h-16.4V88.3
			c0-3.6-2.5-6.7-6.1-7.4L257.4,50.6c-0.9-0.2-1.9-0.2-2.9,0L99,81c-3.5,0.7-6.1,3.8-6.1,7.4v26.5c0,4.1,3.4,7.5,7.5,7.5
			s7.5-3.4,7.5-7.5V94.5L256,65.6l148.1,28.8V201c0,99.7-54.1,191.8-141.1,240.4l-7,3.9l-7-3.9C162,392.8,107.9,300.7,107.9,201
			v-51.3c0-4.1-3.4-7.5-7.5-7.5s-7.5,3.4-7.5,7.5V177H76.6c-3.2-11.1-13.5-19.2-25.6-19.2c-14.7,0-26.7,12-26.7,26.7
			s12,26.7,26.7,26.7c12.1,0,22.4-8.1,25.6-19.2H93v9.1c0,21.7,2.4,43.1,7.1,63.8H52.3c-3.2-11.1-13.5-19.2-25.6-19.2
			C12,245.7,0,257.7,0,272.4s12,26.7,26.7,26.7c12.1,0,22.4-8.1,25.6-19.2h51.6c7.3,25.7,18,50.2,31.9,72.9h-39
			c-3.2-11.1-13.5-19.2-25.6-19.2c-14.7,0-26.7,12-26.7,26.7s12,26.7,26.7,26.7c12.1,0,22.4-8.1,25.6-19.2h48.9
			c24.7,35.2,57.3,65.1,96.1,86.8l10.6,5.9c1.1,0.6,2.4,1,3.7,1s2.5-0.3,3.7-1l10.6-5.9c38.8-21.7,71.4-51.6,96.1-86.8h48.9
			c3.2,11.1,13.5,19.2,25.6,19.2c14.7,0,26.7-12,26.7-26.7s-12-26.7-26.7-26.7c-12.1,0-22.4,8.1-25.6,19.2h-39
			c13.9-22.6,24.6-47.2,31.9-72.9h51.6c3.2,11.1,13.5,19.2,25.6,19.2c14.7,0,26.7-12,26.7-26.7S500,245.7,485.3,245.7z M461.1,172.9
			c6.4,0,11.7,5.2,11.7,11.7c0,6.4-5.2,11.7-11.7,11.7s-11.7-5.2-11.7-11.7S454.6,172.9,461.1,172.9z M50.9,196.2
			c-6.4,0-11.7-5.2-11.7-11.7c0-6.4,5.2-11.7,11.7-11.7s11.7,5.2,11.7,11.7S57.4,196.2,50.9,196.2z M26.7,284.1
			c-6.4,0-11.7-5.2-11.7-11.7s5.2-11.7,11.7-11.7s11.7,5.2,11.7,11.7S33.1,284.1,26.7,284.1z M71.1,372c-6.4,0-11.7-5.2-11.7-11.7
			c0-6.4,5.2-11.7,11.7-11.7s11.7,5.2,11.7,11.7S77.6,372,71.1,372z M440.9,348.6c6.4,0,11.7,5.2,11.7,11.7s-5.2,11.7-11.7,11.7
			s-11.7-5.2-11.7-11.7S434.4,348.6,440.9,348.6z M485.3,284.1c-6.4,0-11.7-5.2-11.7-11.7s5.2-11.7,11.7-11.7S497,266,497,272.4
			S491.8,284.1,485.3,284.1z"/>
	</g>
</g>
</svg>
