<?xml version="1.0" encoding="utf-8"?>
<svg version="1.1" xmlns="http://www.w3.org/2000/svg" xmlns:xlink="http://www.w3.org/1999/xlink" x="0px" y="0px"
	 viewBox="0 0 512 512" enable-background="new 0 0 512 512" xml:space="preserve">
<g>
	<g>
		<path fill="#75DAFF" d="M459.7,263.5c3.2,11.1,13.5,19.2,25.6,19.2c14.7,0,26.7-12,26.7-26.7s-12-26.7-26.7-26.7
			c-12.1,0-22.4,8.1-25.6,19.2h-70.9v-7c0-4.1-3.4-7.5-7.5-7.5s-7.5,3.4-7.5,7.5v120.4c0,7-5.7,12.7-12.7,12.7H150.9
			c-7,0-12.7-5.7-12.7-12.7v-52.4c0-4.1-3.4-7.5-7.5-7.5s-7.5,3.4-7.5,7.5v6.7h-7.7c-2,0-3.9,0.8-5.3,2.2l-18,18H76.6
			c-3.2-11.1-13.5-19.2-25.6-19.2c-14.7,0-26.7,12-26.7,26.7s12,26.7,26.7,26.7c12.1,0,22.4-8.1,25.6-19.2h18.8c2,0,3.9-0.8,5.3-2.2
			l18-18h4.5v30.7c0,15.3,12.4,27.7,27.7,27.7h29.9v3.7l-18,18c-1.4,1.4-2.2,3.3-2.2,5.3v18.8c-11.1,3.2-19.2,13.5-19.2,25.6
			c0,14.7,12,26.7,26.7,26.7s26.7-12,26.7-26.7c0-12.1-8.1-22.4-19.2-25.6v-15.7l18-18c1.4-1.4,2.2-3.3,2.2-5.3v-6.8h52.7v70.1
			c-11.1,3.2-19.2,13.5-19.2,25.6c0,14.7,12,26.7,26.7,26.7s26.7-12,26.7-26.7c0-12.1-8.1-22.4-19.2-25.6v-70.1h52.7v6.8
			c0,2,0.8,3.9,2.2,5.3l18,18v15.7c-11.1,3.2-19.2,13.5-19.2,25.6c0,14.7,12,26.7,26.7,26.7s26.7-12,26.7-26.7
			c0-12.1-8.1-22.4-19.2-25.6v-18.8c0-2-0.8-3.9-2.2-5.3l-18-18v-3.7h29.9c15.3,0,27.7-12.4,27.7-27.7v-30.7h4.5l18,18
			c1.4,1.4,3.3,2.2,5.3,2.2h18.8c3.2,11.1,13.5,19.2,25.6,19.2c14.7,0,26.7-12,26.7-26.7s-12-26.7-26.7-26.7
			c-12.1,0-22.4,8.1-25.6,19.2h-15.7l-18-18c-1.4-1.4-3.3-2.2-5.3-2.2h-7.7v-52.7H459.7z M485.3,244.3c6.4,0,11.7,5.2,11.7,11.7
			s-5.2,11.7-11.7,11.7c-6.4,0-11.7-5.2-11.7-11.7S478.9,244.3,485.3,244.3z M50.9,355.6c-6.4,0-11.7-5.2-11.7-11.7
			c0-6.4,5.2-11.7,11.7-11.7s11.7,5.2,11.7,11.7C62.6,350.3,57.4,355.6,50.9,355.6z M179.8,461.1c0,6.4-5.2,11.7-11.7,11.7
			c-6.4,0-11.7-5.2-11.7-11.7s5.2-11.7,11.7-11.7S179.8,454.6,179.8,461.1z M267.7,485.3c0,6.4-5.2,11.7-11.7,11.7
			s-11.7-5.2-11.7-11.7c0-6.4,5.2-11.7,11.7-11.7S267.7,478.9,267.7,485.3z M355.6,461.1c0,6.4-5.2,11.7-11.7,11.7
			c-6.4,0-11.7-5.2-11.7-11.7s5.2-11.7,11.7-11.7C350.3,449.4,355.6,454.6,355.6,461.1z M461.1,332.2c6.4,0,11.7,5.2,11.7,11.7
			s-5.2,11.7-11.7,11.7s-11.7-5.2-11.7-11.7S454.6,332.2,461.1,332.2z"/>
		<path fill="#75DAFF" d="M52.3,263.5h70.9v11.1c0,4.1,3.4,7.5,7.5,7.5c4.1,0,7.5-3.4,7.5-7.5V151.8c0-7,5.7-12.7,12.7-12.7H361
			c7,0,12.7,5.7,12.7,12.7v54.7c0,4.1,3.4,7.5,7.5,7.5s7.5-3.4,7.5-7.5v-10.7h7.7c2,0,3.9-0.8,5.3-2.2l18-18h15.7
			c3.2,11.1,13.5,19.2,25.6,19.2c14.7,0,26.7-12,26.7-26.7s-12-26.7-26.7-26.7c-12.1,0-22.4,8.1-25.6,19.2h-18.8
			c-2,0-3.9,0.8-5.3,2.2l-18,18h-4.5v-29c0-15.3-12.4-27.7-27.7-27.7h-29.9v-5.4l18-18c1.4-1.4,2.2-3.3,2.2-5.3V76.6
			c11.1-3.2,19.2-13.5,19.2-25.6c0-14.7-12-26.7-26.7-26.7s-26.7,12-26.7,26.7c0,12.1,8.1,22.4,19.2,25.6v15.7l-18,18
			c-1.4,1.4-2.2,3.3-2.2,5.3v8.5h-52.7V52.3c11.1-3.2,19.2-13.5,19.2-25.6C282.7,12,270.7,0,256,0s-26.7,12-26.7,26.7
			c0,12.1,8.1,22.4,19.2,25.6v71.8h-52.7v-8.5c0-2-0.8-3.9-2.2-5.3l-18-18V76.6c11.1-3.2,19.2-13.5,19.2-25.6
			c0-14.7-12-26.7-26.7-26.7s-26.7,12-26.7,26.7c0,12.1,8.1,22.4,19.2,25.6v18.8c0,2,0.8,3.9,2.2,5.3l18,18v5.4h-29.9
			c-15.3,0-27.7,12.4-27.7,27.7v29h-4.5l-18-18c-1.4-1.4-3.3-2.2-5.3-2.2H76.6c-3.2-11.1-13.5-19.2-25.6-19.2
			c-14.7,0-26.7,12-26.7,26.7s12,26.7,26.7,26.7c12.1,0,22.4-8.1,25.6-19.2h15.7l18,18c1.4,1.4,3.3,2.2,5.3,2.2h7.7v52.7h-71
			c-3.2-11.1-13.5-19.2-25.6-19.2C12,229.3,0,241.3,0,256c0,14.7,12,26.7,26.7,26.7C38.8,282.7,49.1,274.6,52.3,263.5z M461.1,156.4
			c6.4,0,11.7,5.2,11.7,11.7c0,6.4-5.2,11.7-11.7,11.7s-11.7-5.2-11.7-11.7C449.4,161.7,454.6,156.4,461.1,156.4z M332.2,50.9
			c0-6.4,5.2-11.7,11.7-11.7s11.7,5.2,11.7,11.7s-5.2,11.7-11.7,11.7S332.2,57.4,332.2,50.9z M244.3,26.7c0-6.4,5.2-11.7,11.7-11.7
			c6.4,0,11.7,5.2,11.7,11.7c0,6.4-5.2,11.7-11.7,11.7S244.3,33.1,244.3,26.7z M156.4,50.9c0-6.4,5.2-11.7,11.7-11.7
			c6.4,0,11.7,5.2,11.7,11.7s-5.2,11.7-11.7,11.7C161.7,62.6,156.4,57.4,156.4,50.9z M50.9,179.8c-6.4,0-11.7-5.2-11.7-11.7
			c0-6.4,5.2-11.7,11.7-11.7s11.7,5.2,11.7,11.7S57.4,179.8,50.9,179.8z M15,256c0-6.4,5.2-11.7,11.7-11.7c6.4,0,11.7,5.2,11.7,11.7
			s-5.2,11.7-11.7,11.7S15,262.4,15,256z"/>
		<path fill="#75DAFF" d="M356,194.8c4.1,0,7.5-3.4,7.5-7.5s-3.4-7.5-7.5-7.5h-7.7v-8.7c0-4.1-3.4-7.5-7.5-7.5h-8.7V156
			c0-4.1-3.4-7.5-7.5-7.5s-7.5,3.4-7.5,7.5v7.7h-19.3V156c0-4.1-3.4-7.5-7.5-7.5s-7.5,3.4-7.5,7.5v7.7h-19.3V156
			c0-4.1-3.4-7.5-7.5-7.5s-7.5,3.4-7.5,7.5v7.7h-19.3V156c0-4.1-3.4-7.5-7.5-7.5s-7.5,3.4-7.5,7.5v7.7h-19.3V156
			c0-4.1-3.4-7.5-7.5-7.5s-7.5,3.4-7.5,7.5v7.7h-8.7c-4.1,0-7.5,3.4-7.5,7.5v8.7H156c-4.1,0-7.5,3.4-7.5,7.5s3.4,7.5,7.5,7.5h7.7
			v19.3H156c-4.1,0-7.5,3.4-7.5,7.5s3.4,7.5,7.5,7.5h7.7v19.3H156c-4.1,0-7.5,3.4-7.5,7.5s3.4,7.5,7.5,7.5h7.7v19.3H156
			c-4.1,0-7.5,3.4-7.5,7.5s3.4,7.5,7.5,7.5h7.7v19.3H156c-4.1,0-7.5,3.4-7.5,7.5s3.4,7.5,7.5,7.5h7.7v8.7c0,4.1,3.4,7.5,7.5,7.5h8.7
			v7.7c0,4.1,3.4,7.5,7.5,7.5s7.5-3.4,7.5-7.5v-7.7h19.3v7.7c0,4.1,3.4,7.5,7.5,7.5s7.5-3.4,7.5-7.5v-7.7h19.3v7.7
			c0,4.1,3.4,7.5,7.5,7.5s7.5-3.4,7.5-7.5v-7.7h19.3v7.7c0,4.1,3.4,7.5,7.5,7.5s7.5-3.4,7.5-7.5v-7.7h19.3v7.7
			c0,4.1,3.4,7.5,7.5,7.5s7.5-3.4,7.5-7.5v-7.7h8.7c4.1,0,7.5-3.4,7.5-7.5v-8.7h7.7c4.1,0,7.5-3.4,7.5-7.5s-3.4-7.5-7.5-7.5h-7.7
			v-19.3h7.7c4.1,0,7.5-3.4,7.5-7.5s-3.4-7.5-7.5-7.5h-7.7v-19.3h7.7c4.1,0,7.5-3.4,7.5-7.5s-3.4-7.5-7.5-7.5h-7.7v-19.3h7.7
			c4.1,0,7.5-3.4,7.5-7.5s-3.4-7.5-7.5-7.5h-7.7v-19.3L356,194.8L356,194.8z M333.4,333.4H178.6V178.6h154.7L333.4,333.4
			L333.4,333.4z"/>
	</g>
</g>
</svg>
