<?xml version="1.0" encoding="utf-8"?>
<svg version="1.1" xmlns="http://www.w3.org/2000/svg" xmlns:xlink="http://www.w3.org/1999/xlink" x="0px" y="0px"
	 viewBox="0 0 512 512" enable-background="new 0 0 512 512" xml:space="preserve">
<g>
	<g>
		<path fill="#75DAFF" d="M249.6,122.9c1.1,0,2.2-0.3,3.3-0.8l70.7,70.7c1.4,1.4,3.4,2.2,5.3,2.2c1.1,0,2.3-0.3,3.4-0.8
			c2.9-1.4,4.5-4.6,4.1-7.8l-4.3-30c-2.1-14.5-8.9-28.2-19.3-38.5L285,90.1c1.4-2.8,0.9-6.3-1.4-8.6L255,52.9
			c-2.3-2.3-5.8-2.8-8.6-1.4l-27.9-27.8c-10.4-10.4-24-17.2-38.5-19.3l-30-4.3c-3.2-0.5-6.3,1.2-7.8,4.1c-1.4,2.9-0.9,6.4,1.4,8.7
			l70.7,70.7c-0.5,1-0.8,2.1-0.8,3.3s0.3,2.3,0.8,3.3l-83.5,83.5c-2.9,2.9-2.9,7.7,0,10.6c2.9,2.9,7.7,2.9,10.6,0l83.2-83.2
			l10.8,10.8L28.9,318.3l-10.8-10.8l98.5-98.5c2.9-2.9,2.9-7.7,0-10.6c-2.9-2.9-7.7-2.9-10.6,0L2.2,302.2c-2.9,2.9-2.9,7.7,0,10.6
			l21.4,21.4c1.5,1.5,3.4,2.2,5.3,2.2s3.8-0.7,5.3-2.2l212.1-212.1C247.4,122.6,248.5,122.9,249.6,122.9z M317.2,158.6l1.1,7.7
			l-54.5-54.5l10.8-10.8l27.6,27.6C310.3,136.6,315.6,147.3,317.2,158.6z M267.6,86.8l-18,18l-18-18l18-18L267.6,86.8z M177.9,19.2
			c11.3,1.6,22,6.9,30,15l27.6,27.6l-10.8,10.8l-54.5-54.5L177.9,19.2z"/>
		<path fill="#75DAFF" d="M504.5,109.1h-20.2c-2.1,0-4.1,0.9-5.5,2.5l-89.7,98.6h-21.9c-3.3,0-6.3,2.2-7.2,5.4l-8.5,29h-32
			c-2.4,0-4.7,1.2-6.1,3.2l-48.1,67.6h-69.9c-2.4,0-4.6,1.1-6,3l-33.4,44c-2.5,3.3-1.8,8,1.5,10.5c1.4,1,2.9,1.5,4.5,1.5
			c2.3,0,4.5-1,6-3l31.2-41.2h55.2l-21.5,29.4l-21,28.3h-17.4c-4.1,0-7.5,3.4-7.5,7.5s3.4,7.5,7.5,7.5h21.2c2.4,0,4.6-1.1,6-3
			l14.6-19.7l4.5,13.6c1,3.1,4,5.1,7.1,5.1c0.8,0,1.6-0.1,2.4-0.4c3.9-1.3,6.1-5.6,4.7-9.5l-7.9-23.6l28-38.3l0,0l0,0l48.1-67.6H357
			c3.3,0,6.3-2.2,7.2-5.4l8.5-29h19.6H456c2,0,3.9-0.8,5.3-2.2l26.3-26.3c2.9-2.9,2.9-7.7,0-10.6c-2.9-2.9-7.7-2.9-10.6,0
			l-24.1,24.1h-43.6l78.3-86h16.9c4.1,0,7.5-3.4,7.5-7.5S508.6,109.1,504.5,109.1z"/>
		<path fill="#75DAFF" d="M145.3,388.9c-3.3-2.5-8-1.8-10.5,1.5L52,500c-2.5,3.3-1.8,8,1.5,10.5c1.4,1,2.9,1.5,4.5,1.5
			c2.3,0,4.5-1,6-3l82.8-109.6C149.3,396.1,148.6,391.4,145.3,388.9z"/>
		<path fill="#75DAFF" d="M243.8,425.1l-9.1-3.4c-2.5-1-5.1-1.4-7.8-1.4c-7.4,0-14.3,3.7-18.4,10l-8.2,12.5c-0.8,1.2-2,2.2-3.4,2.7
			l-9.8,3.6c-4.8,1.8-8.9,5.2-11.4,9.6c-4,6.9-4,15.1,0,22s11.1,11,19,11h8.3c4.9,0,9.7-1.6,13.5-4.6l4.2-3.3
			c0.3-0.2,0.6-0.4,0.9-0.6l24.8-13.5c7.1-3.9,11.5-11.2,11.5-19.3v-4.6C258,436.6,252.3,428.3,243.8,425.1z M243,450.3
			c0,2.6-1.4,4.9-3.6,6.1l-24.8,13.5c-1,0.6-2,1.2-3,1.9l-4.2,3.3c-1.2,0.9-2.7,1.5-4.3,1.5h-8.3c-3.6,0-5.4-2.4-6-3.5s-1.8-3.8,0-7
			c0.8-1.4,2.1-2.5,3.6-3.1l9.8-3.6c4.4-1.6,8.2-4.7,10.8-8.6l8.2-12.5c1.3-2,3.5-3.2,5.9-3.2c0.8,0,1.7,0.2,2.5,0.5l9.1,3.4
			c2.7,1,4.5,3.6,4.5,6.5L243,450.3L243,450.3z"/>
		<path fill="#75DAFF" d="M355,199.9c4.1,0,7.5-3.4,7.5-7.5v-10.1c0-4.1-3.4-7.5-7.5-7.5s-7.5,3.4-7.5,7.5v10.1
			C347.5,196.5,350.9,199.9,355,199.9z"/>
		<path fill="#75DAFF" d="M330.2,215.1l6.1,11.1c1.4,2.5,3.9,3.9,6.6,3.9c1.2,0,2.4-0.3,3.6-0.9c3.6-2,5-6.5,3-10.2l-6.1-11.1
			c-2-3.6-6.5-5-10.2-3C329.6,207,328.2,211.5,330.2,215.1z"/>
		<path fill="#75DAFF" d="M307.2,201c-3.6-2.1-8.2-0.8-10.2,2.7c-2.1,3.6-0.8,8.2,2.7,10.2l8.7,5.1c1.2,0.7,2.5,1,3.7,1
			c2.6,0,5.1-1.3,6.5-3.8c2.1-3.6,0.8-8.2-2.7-10.2L307.2,201z"/>
	</g>
</g>
</svg>
