<?xml version="1.0" encoding="utf-8"?>
<svg version="1.1" xmlns="http://www.w3.org/2000/svg" xmlns:xlink="http://www.w3.org/1999/xlink" x="0px" y="0px"
	 viewBox="0 0 512 512" enable-background="new 0 0 512 512" xml:space="preserve">
<g>
	<g>
		<path fill="#75DAFF" d="M360.4,240.6c0-56.5-46-102.5-102.5-102.5s-102.5,46-102.5,102.5s46,102.5,102.5,102.5
			S360.4,297.1,360.4,240.6z M170.5,240.6c0-48.2,39.2-87.5,87.5-87.5s87.5,39.2,87.5,87.5s-39.2,87.5-87.5,87.5
			S170.5,288.9,170.5,240.6z"/>
		<path fill="#75DAFF" d="M68.5,400.2h379c9.7,0,17.6-7.9,17.6-17.6V98.7c0-9.7-7.9-17.6-17.6-17.6H141.3c-4.1,0-7.5,3.4-7.5,7.5
			s3.4,7.5,7.5,7.5h306.1c1.4,0,2.6,1.2,2.6,2.6v283.9c0,1.4-1.2,2.6-2.6,2.6h-379c-1.4,0-2.6-1.2-2.6-2.6v-17.3
			c8.9-3.1,15.3-11.5,15.3-21.4v-51.3c0-9.9-6.4-18.4-15.3-21.4v-60.9c8.9-3.1,15.3-11.5,15.3-21.4v-51.3c0-9.9-6.4-18.4-15.3-21.4
			V98.7c0-1.4,1.2-2.6,2.6-2.6h37.9c4.1,0,7.5-3.4,7.5-7.5s-3.4-7.5-7.5-7.5H68.5c-9.7,0-17.6,7.9-17.6,17.6V116
			c-8.9,3.1-15.3,11.5-15.3,21.4v51.3c0,9.9,6.4,18.4,15.3,21.4V271c-8.9,3.1-15.3,11.5-15.3,21.4v51.3c0,9.9,6.4,18.4,15.3,21.4
			v17.3C50.9,392.3,58.8,400.2,68.5,400.2z M50.6,137.4c0-4.2,3.4-7.7,7.7-7.7h0.3c4.2,0,7.7,3.4,7.7,7.7v51.3
			c0,4.2-3.4,7.7-7.7,7.7h-0.3c-4.2,0-7.7-3.4-7.7-7.7C50.6,188.7,50.6,137.4,50.6,137.4z M50.6,292.5c0-4.2,3.4-7.7,7.7-7.7h0.1
			l0,0l0,0h0.1c4.2,0,7.7,3.4,7.7,7.7v51.3c0,4.2-3.4,7.7-7.7,7.7h-0.1l0,0l0,0h-0.1c-4.2,0-7.7-3.4-7.7-7.7V292.5L50.6,292.5z"/>
		<path fill="#75DAFF" d="M486.3,41.4H25.7C11.5,41.4,0,52.9,0,67.1v347.5c0,14.2,11.5,25.7,25.7,25.7H44v22.8
			c0,4.1,3.4,7.5,7.5,7.5h60.6c4.1,0,7.5-3.4,7.5-7.5v-22.8h197.9c4.1,0,7.5-3.4,7.5-7.5s-3.4-7.5-7.5-7.5H25.7
			c-5.9,0-10.7-4.8-10.7-10.7V67.1c0-5.9,4.8-10.7,10.7-10.7h460.6c5.9,0,10.7,4.8,10.7,10.7v347.5c0,5.9-4.8,10.7-10.7,10.7H352.6
			c-4.1,0-7.5,3.4-7.5,7.5s3.4,7.5,7.5,7.5h39.9v22.8c0,4.1,3.4,7.5,7.5,7.5h60.6c4.1,0,7.5-3.4,7.5-7.5v-22.8h18.3
			c14.2,0,25.7-11.5,25.7-25.7V67.1C512,52.9,500.5,41.4,486.3,41.4z M104.6,455.6H58.9v-15.3h45.6L104.6,455.6L104.6,455.6z
			 M453.1,455.6h-45.6v-15.3h45.6V455.6L453.1,455.6z"/>
	</g>
</g>
</svg>
