<?xml version="1.0" encoding="utf-8"?>
<svg version="1.1" id="Layer_1" xmlns="http://www.w3.org/2000/svg" xmlns:xlink="http://www.w3.org/1999/xlink" x="0px" y="0px"
	 viewBox="0 0 100 100" enable-background="new 0 0 100 100" xml:space="preserve">
<path fill="#FFFFFF" d="M6,56.5L6.3,56l21.1-33.2c0.3-0.5,1-0.5,1.3,0.2c3.6,8,6.5,17.8,5.2,24.1c-0.6,2.6-2.3,6.1-4.2,9.2
	c-0.2,0.5-0.5,1-0.8,1.3c-0.2,0.2-0.3,0.3-0.6,0.3H6.5C6,57.6,5.7,57,6,56.5z"/>
<path fill="#FFFFFF" d="M100,62.7v5.2c0,0.3-0.2,0.5-0.5,0.7c-1.6,0.7-7.3,3.3-9.6,6.5c-6,8.3-10.6,20.3-20.6,20.3H27.1
	C12.2,95.4,0,83.1,0,67.9v-0.5c0-0.3,0.3-0.7,0.6-0.7h23.7c0.5,0,0.8,0.5,0.8,0.8c-0.2,1.5,0.2,3.1,0.8,4.6c1.5,2.9,4.4,4.6,7.5,4.6
	h11.7v-9.2H33.6c-0.6,0-1-0.7-0.6-1.1c0.2-0.2,0.3-0.3,0.5-0.7c1.1-1.6,2.6-3.9,4.2-6.7c1.1-1.8,2.1-3.9,2.9-5.9
	c0.2-0.3,0.3-0.7,0.5-1.1c0.2-0.7,0.5-1.3,0.6-1.8c0.2-0.5,0.3-1,0.5-1.5c0.3-1.6,0.5-3.4,0.5-5.4c0-0.7,0-1.5-0.2-2.3
	c0-0.8-0.2-1.6-0.2-2.5c0-0.7-0.2-1.5-0.3-2.1c-0.2-1.1-0.3-2.1-0.6-3.3l-0.2-0.3c-0.2-0.7-0.3-1.5-0.6-2.1
	c-0.6-2.3-1.5-4.6-2.3-6.5c-0.3-0.8-0.6-1.6-1-2.5c-0.5-1.1-1-2.3-1.5-3.3c-0.2-0.5-0.5-0.8-0.6-1.3c-0.2-0.5-0.5-1-0.6-1.5
	c-0.2-0.3-0.3-0.7-0.5-1l-1.5-2.6c-0.2-0.3,0.2-0.8,0.5-0.7l8.9,2.5l0,0l0,0l1.1,0.3l1.3,0.3l0.5,0.2V9.3c0-2.6,2.1-4.7,4.5-4.7
	c1.3,0,2.4,0.5,3.2,1.3s1.3,2,1.3,3.3V17l1,0.3c0,0,0.2,0,0.2,0.2c0.2,0.2,0.5,0.5,1,0.8c0.3,0.3,0.6,0.7,1.1,1
	c0.8,0.7,1.9,1.6,3.1,2.6c0.3,0.3,0.6,0.5,0.8,0.8c1.5,1.3,3.1,2.9,4.7,4.7c0.5,0.5,0.8,1,1.3,1.5c0.5,0.5,0.8,1.1,1.3,1.6
	c0.5,0.7,1.1,1.5,1.6,2.1c0.2,0.3,0.5,0.7,0.6,1.1c0.6,1,1.1,2,1.8,2.9c0.2,0.5,0.5,1,0.6,1.5c0.6,1.3,1.1,2.6,1.3,4.1
	c0.2,0.3,0.2,0.7,0.2,0.8l0,0c0.2,0.3,0.2,0.8,0.2,1.3c0.2,1.5,0,2.8-0.2,4.3c-0.2,0.7-0.3,1.1-0.5,1.8c-0.2,0.5-0.3,1.1-0.6,1.8
	c-0.5,1.1-1.1,2.3-1.8,3.4c-0.2,0.3-0.5,0.8-0.8,1.3s-0.6,0.8-0.8,1.3c-0.3,0.5-0.8,1-1.1,1.5c-0.3,0.5-0.6,1-1.1,1.5
	c-0.5,0.7-1.1,1.3-1.6,2c-0.3,0.3-0.6,0.8-1.1,1.1c-0.3,0.3-0.6,0.8-1.1,1.1c-0.5,0.5-1,1-1.5,1.3l-1,0.8c-0.2,0.2-0.3,0.2-0.5,0.2
	h-7.1v9.2h8.9c1.9,0,3.9-0.7,5.4-2c0.5-0.5,2.8-2.5,5.5-5.4c0.2-0.2,0.2-0.2,0.3-0.2l25.2-7.7C99.7,61.7,100,62.2,100,62.7z"/>
</svg>
